<?xml version="1.0" encoding="UTF-8"?>
<svg id="Calque_1" data-name="Calque 1" xmlns="http://www.w3.org/2000/svg" viewBox="0 0 934.78 440.85">
  <defs>
    <style>
      .cls-1 {
        fill: #661a30;
      }

      .cls-2 {
        fill: #1d1d1b;
      }
    </style>
  </defs>
  <g>
    <path class="cls-2" d="m267.17,137v29.33h-62.81v195.75h-36.67v-195.75h-62.49v-29.33h161.96Z"/>
    <path class="cls-2" d="m417.49,265.49c8.4,10.2,12.59,22.11,12.59,35.71,0,18.71-6.27,33.53-18.81,44.48-12.55,10.95-30.72,16.42-54.52,16.42h-89.59v-225.08h88c22.53,0,39.8,5.05,51.81,15.15,12.01,10.1,18.02,23.96,18.02,41.61,0,14.24-3.73,25.77-11.16,34.59-7.44,8.82-17.22,14.72-29.34,17.69,13.61,2.77,24.61,9.25,33,19.45Zm-113.97-31.56h44.95c12.75,0,22.48-2.97,29.17-8.93,6.69-5.95,10.05-14.24,10.05-24.87s-3.35-18.59-10.05-24.54-16.84-8.93-30.45-8.93h-43.67v67.27Zm77.95,88.79c7.53-6.27,11.31-15.03,11.31-26.3s-3.83-20.08-11.48-26.46c-7.65-6.38-18.38-9.56-32.2-9.56h-45.58v71.73h45.9c13.81,0,24.49-3.13,32.05-9.41Z"/>
    <path class="cls-1" d="m656.71,140.51v221.58h-36.66v-166.1l-64.08,166.1h-31.88l-64.4-166.1v166.1h-36.35v-221.58h44l73.32,176.94,72.05-176.94h43.99Z"/>
    <path class="cls-1" d="m704.22,315.8c3.25,2.27,5.54,5.27,6.89,9.01v-11.76h10.48v50.63h-10.48v-11.76c-1.35,3.74-3.65,6.74-6.89,9.01-3.25,2.27-7.17,3.4-11.76,3.4s-8.35-1.04-11.81-3.12c-3.46-2.08-6.17-5.08-8.13-9.01-1.96-3.92-2.94-8.55-2.94-13.88s.98-9.86,2.94-13.78c1.96-3.92,4.67-6.92,8.13-9.01,3.46-2.08,7.39-3.12,11.81-3.12s8.51,1.14,11.76,3.4Zm-19.71,10.25c-2.79,2.97-4.18,7.06-4.18,12.27s1.39,9.3,4.18,12.27c2.78,2.97,6.51,4.46,11.16,4.46,2.94,0,5.58-.69,7.9-2.07,2.33-1.38,4.17-3.32,5.51-5.83,1.35-2.51,2.02-5.45,2.02-8.82s-.67-6.23-2.02-8.78c-1.35-2.54-3.19-4.5-5.51-5.88-2.33-1.38-4.96-2.07-7.9-2.07-4.65,0-8.38,1.49-11.16,4.46Z"/>
    <path class="cls-1" d="m752,315.11c3.19-1.93,6.86-2.89,11.03-2.89v11.39h-3.13c-4.59,0-8.29,1.12-11.07,3.35-2.79,2.24-4.18,5.93-4.18,11.07v25.64h-10.48v-50.63h10.48v9.92c1.71-3.31,4.16-5.93,7.35-7.86Z"/>
    <path class="cls-1" d="m809.62,317.59c4.29,3.46,6.95,8.16,8,14.11h-11.12c-.61-3.18-2.1-5.68-4.46-7.49-2.36-1.81-5.32-2.71-8.87-2.71-4.04,0-7.41,1.42-10.11,4.27-2.7,2.85-4.04,7.03-4.04,12.54s1.35,9.71,4.04,12.59c2.7,2.88,6.07,4.32,10.11,4.32,3.55,0,6.51-.92,8.87-2.76,2.36-1.84,3.84-4.35,4.46-7.54h11.12c-1.04,5.94-3.71,10.66-8,14.15-4.29,3.49-9.71,5.24-16.26,5.24-4.9,0-9.24-1.04-13-3.12-3.77-2.08-6.72-5.08-8.87-9.01-2.14-3.92-3.22-8.55-3.22-13.88s1.07-9.86,3.22-13.78,5.1-6.92,8.87-9.01c3.77-2.08,8.1-3.12,13-3.12,6.55,0,11.98,1.73,16.26,5.19Z"/>
    <path class="cls-1" d="m870.18,317.91c3.55,3.8,5.33,9.22,5.33,16.27v29.5h-10.48v-28.4c0-4.53-1.16-8.04-3.49-10.52-2.33-2.48-5.51-3.72-9.56-3.72s-7.51,1.33-10.02,4c-2.51,2.67-3.77,6.57-3.77,11.72v26.93h-10.48v-68h10.48v28.49c1.35-3.8,3.61-6.74,6.8-8.82,3.19-2.08,6.86-3.12,11.03-3.12,5.88,0,10.6,1.9,14.15,5.7Z"/>
    <path class="cls-1" d="m934.41,340.43h-38.97c.19,5.21,1.62,9.07,4.32,11.58,2.7,2.51,6.03,3.77,10.02,3.77,3.49,0,6.45-.89,8.87-2.67,2.42-1.78,3.91-4.13,4.46-7.07h11.21c-.68,3.55-2.08,6.71-4.23,9.46-2.14,2.76-4.93,4.92-8.36,6.48-3.43,1.56-7.26,2.34-11.49,2.34-4.9,0-9.23-1.04-13-3.12-3.77-2.08-6.72-5.08-8.87-9.01-2.14-3.92-3.22-8.55-3.22-13.88s1.07-9.86,3.22-13.78c2.14-3.92,5.1-6.92,8.87-9.01,3.77-2.08,8.1-3.12,13-3.12s9.3,1.03,13,3.08c3.71,2.05,6.55,4.87,8.55,8.45,1.99,3.58,2.99,7.58,2.99,11.99,0,1.72-.13,3.22-.37,4.5Zm-11.9-13.1c-1.26-2.23-2.97-3.89-5.15-4.96-2.17-1.07-4.55-1.61-7.12-1.61-4.1,0-7.54,1.26-10.29,3.77-2.76,2.51-4.26,6.22-4.5,11.12h28.76c.12-3.31-.45-6.08-1.7-8.32Z"/>
  </g>
  <g>
    <path class="cls-1" d="m149.99,394.16c-.2,0-.4-.04-.59-.12-48.36-20.63-84.98-59.16-103.11-108.49-17.4-47.32-15.32-98.58,5.84-144.34,21.16-45.76,58.87-80.54,106.19-97.93.78-.29,1.65.11,1.94.9s-.11,1.65-.9,1.94c-46.56,17.12-83.67,51.34-104.49,96.37-20.82,45.03-22.86,95.47-5.75,142.03,17.84,48.54,53.87,86.45,101.46,106.76.77.33,1.13,1.22.8,1.98-.25.57-.8.92-1.39.92Z"/>
    <path class="cls-1" d="m167.62,414.64c-.27,0-.54-.04-.81-.11-67.03-18.58-119.05-69.38-139.14-135.88-15.55-51.48-10.13-105.94,15.28-153.35,25.41-47.4,67.75-82.07,119.24-97.63,1.6-.47,3.29.42,3.77,2.02.48,1.6-.42,3.29-2.02,3.77-49.94,15.09-91.01,48.72-115.65,94.69-24.64,45.98-29.91,98.8-14.82,148.74,19.49,64.5,69.94,113.78,134.96,131.8,1.61.45,2.55,2.11,2.11,3.72-.37,1.34-1.59,2.22-2.91,2.22Z"/>
    <path class="cls-1" d="m220.42,440.85C98.88,440.85,0,341.96,0,220.42S98.88,0,220.42,0c2.51,0,4.54,2.03,4.54,4.54s-2.03,4.54-4.54,4.54C103.88,9.07,9.07,103.88,9.07,220.42s94.81,211.35,211.35,211.35c2.51,0,4.54,2.03,4.54,4.54s-2.03,4.54-4.54,4.54Z"/>
  </g>
</svg>